# xmcd
#
# Track frame offsets:
#	150
#	14605
#	26521
#	35661
#	46849
#	58662
#	72012
#	83354
#	92314
#	102493
#	114260
#	127420
#	138323
#	149432
#	163145
#	175093
#	190238
#	202217
#	214012
#	226089
#	238758
#	248897
#	260486
#	279438
#	293541
#	303040
#	316398
#	327580
#
# Disc length: 4595 seconds
#
# Revision: 1
# Processed by: cddbd v1.5.2PL0 Copyright (c) Steve Scherf et al.
# Submitted via: audiograbber 1.83.01
#
DISCID=9211f11c
DTITLE=George Hailton IV - To You And Yours, ... CD2
DYEAR=1995
DGENRE=Country
TTITLE0=I've Got A Secret
TTITLE1=Sam
TTITLE2=A Rose And A Baby Ruth
TTITLE3=If You Don't Know, I Ain'
TTITLE4=If I Possessed A Printing
TTITLE5=Only One Love
TTITLE6=Everybody's Body [Take 1]
TTITLE7=High School Romance
TTITLE8=Everybody's Body [Take 1]
TTITLE9=Why Don't They Understand
TTITLE10=Little Tom
TTITLE11=Even Tho'
TTITLE12=You Tell Me Your Dream
TTITLE13=Carolina Moon
TTITLE14=Let Me Call You Sweethear
TTITLE15=When I Grow Too Old To Dr
TTITLE16=Tell Me Why
TTITLE17=Aura Lee
TTITLE18=Girl Of My Dreams
TTITLE19=Drink To Me Only With Thi
TTITLE20=Love's Old Sweet Song
TTITLE21=Auld Lang Syne
TTITLE22=Ivy Rose
TTITLE23=Clementine
TTITLE24=One Heart
TTITLE25=May I
TTITLE26=Now And For Always
TTITLE27=House Of Gold
EXTD=
EXTT0=
EXTT1=
EXTT2=
EXTT3=
EXTT4=
EXTT5=
EXTT6=
EXTT7=
EXTT8=
EXTT9=
EXTT10=
EXTT11=
EXTT12=
EXTT13=
EXTT14=
EXTT15=
EXTT16=
EXTT17=
EXTT18=
EXTT19=
EXTT20=
EXTT21=
EXTT22=
EXTT23=
EXTT24=
EXTT25=
EXTT26=
EXTT27=
PLAYORDER=
